{"title":"Shrek.Forever.After.R5.H264.Feel-Free torrent","uid":5962802,"size":735006011,"categoryP":"video","categoryS":"movies","magnet":"?xt=urn:btih:32d363184ab34a7e5f9ac34ee336d2809675ed42&amp;dn=Shrek.Forever.After.R5.H264.Feel-Free+torrent&amp;tr=udp%3A%2F%2Ftracker.openbittorrent.com%3A80&amp;tr=udp%3A%2F%2Fopen.demonii.com%3A1337&amp;tr=udp%3A%2F%2Ftracker.coppersurfer.tk%3A6969&amp;tr=udp%3A%2F%2Fexodus.desync.com%3A6969","seeders":0,"leechers":0,"uploader":"deffjam555","files":10,"time":1290012275,"description":"Genre:Animation | Adventure | Comedy | Family | Fantasy\nLanguage.: English\nIMDB:http://www.imdb.com/title/tt0892791/\nSource:DvD9\n\nGeneral\nComplete name :Shrek.Forever.After.R5.H264.Feel-Free\nFormat : MPEG-4\nFormat profile : Base Media\nCodec ID : mp42\nFile size : 699 MiB\nDuration : 1h 29mn\nOverall bit rate : 1 093 Kbps\nVideo #1\nCodec ID : avc1\nCodec ID/Info : Advanced Video Coding\nDuration : 1h 29mn\nBit rate mode : Variable\nBit rate : 880 Kbps\nWidth : 720 pixels\nHeight : 304 pixels\nDisplay aspect ratio : 2.35:1\nFrame rate mode : Constant\nFrame rate : 23.976 fps\nResolution : 24 bits\nColorimetry : 4:2:0\nScan type : Progressive\nBits/(Pixel*Frame) : 0.168\nStream size : 563 MiB (81%)\nAudio #2\nID : 2\nFormat : AAC\nFormat/Info : Advanced Audio Codec\nFormat version : Version 4\nFormat profile : LC\nFormat settings, SBR : No\nCodec ID : 40\nDuration : 1h 29mn\nBit rate mode : Constant\nBit rate : 208 Kbps\nNominal bit rate : 320 Kbps\nChannel(s) : 2 channels\nChannel positions : L R\nSampling rate : 48.0 KHz\nResolution : 16 bits\nStream size : 133 MiB (19%)\n\nPlot:\nRumpelstiltskin tricks a mid-life crisis burdened Shrek into allowing himself to be erased from existence and cast in a dark alternate timeline where Rumpel rules supreme\n\nscreens &lt;a href=&quot;\nhttp://rapidhdd.com/images/445283vlcsnap-2010-11-17-17h25m48s253.png&quot; rel=&quot;nofollow&quot; target=&quot;_NEW&quot;&gt;\nhttp://rapidhdd.com/images/445283vlcsnap-2010-11-17-17h25m48s253.png&lt;/a&gt; &lt;a href=&quot;\nhttp://www.rapidhdd.com/images/860705vlcsnap-2010-11-17-17h26m36s228.png&quot; rel=&quot;nofollow&quot; target=&quot;_NEW&quot;&gt;\nhttp://www.rapidhdd.com/images/860705vlcsnap-2010-11-17-17h26m36s228.png&lt;/a&gt; &lt;a href=&quot;\nhttp://www.rapidhdd.com/images/204819vlcsnap-2010-11-17-17h27m05s16.png&quot; rel=&quot;nofollow&quot; target=&quot;_NEW&quot;&gt;\nhttp://www.rapidhdd.com/images/204819vlcsnap-2010-11-17-17h27m05s16.png&lt;/a&gt; &lt;a href=&quot;\nhttp://www.rapidhdd.com/images/872821vlcsnap-2010-11-17-17h27m19s157.png&quot; rel=&quot;nofollow&quot; target=&quot;_NEW&quot;&gt;\nhttp://www.rapidhdd.com/images/872821vlcsnap-2010-11-17-17h27m19s157.png&lt;/a&gt; &lt;a href=&quot;\nhttp://www.rapidhdd.com/images/172484vlcsnap-2010-11-17-17h34m27s76.png&quot; rel=&quot;nofollow&quot; target=&quot;_NEW&quot;&gt;\nhttp://www.rapidhdd.com/images/172484vlcsnap-2010-11-17-17h34m27s76.png&lt;/a&gt; &lt;a href=&quot;\nhttp://www.rapidhdd.com/images/788715vlcsnap-2010-11-17-17h34m58s126.png&quot; rel=&quot;nofollow&quot; target=&quot;_NEW&quot;&gt;\nhttp://www.rapidhdd.com/images/788715vlcsnap-2010-11-17-17h34m58s126.png&lt;/a&gt; &lt;a href=&quot;\nhttp://www.rapidhdd.com/images/493154vlcsnap-2010-11-17-17h29m52s133.png&quot; rel=&quot;nofollow&quot; target=&quot;_NEW&quot;&gt;\nhttp://www.rapidhdd.com/images/493154vlcsnap-2010-11-17-17h29m52s133.png&lt;/a&gt;","torrent":{"xt":"urn:btih:32d363184ab34a7e5f9ac34ee336d2809675ed42","amp;dn":"Shrek.Forever.After.R5.H264.Feel-Free+torrent","amp;tr":["udp%3A%2F%2Ftracker.openbittorrent.com%3A80","udp%3A%2F%2Fopen.demonii.com%3A1337","udp%3A%2F%2Ftracker.coppersurfer.tk%3A6969","udp%3A%2F%2Fexodus.desync.com%3A6969"],"infoHash":"32d363184ab34a7e5f9ac34ee336d2809675ed42","infoHashBuffer":{"type":"Buffer","data":[50,211,99,24,74,179,74,126,95,154,195,78,227,54,210,128,150,117,237,66]},"announce":[],"urlList":[]}}